<svg xmlns="http://www.w3.org/2000/svg" height="800" width="1200" viewBox="-7.76895 -3.070025 67.3309 18.42015"><path d="M1.1811.2211c-.1662 0-.3634.0102-.6022.0317A14.4546 14.4546 0 000 .3198v11.0074c.4597.0734.8615.11 1.1966.11.3165 0 .7137-.037 1.1822-.1104V.3192a12.597 12.597 0 00-.5719-.0667C1.5625.2313 1.3575.221 1.1811.221M22.7023.1266c-.8262 0-1.5744.1439-2.2243.4279-.6448.2819-1.1952.6808-1.6361 1.186-.44.507-.7825 1.1176-1.0174 1.815-.2354.7028-.3546 1.476-.3546 2.298 0 .8238.1143 1.5953.3397 2.2928.223.6903.5641 1.2904 1.0136 1.7843.4476.4943 1.0138.8858 1.6838 1.1645.6699.2798 1.4675.4216 2.3706.4216.4311 0 .9511-.037 1.5449-.1097.5432-.066 1.1017-.1993 1.6622-.3972v-5.461a8.8294 8.8294 0 00-.5457-.0645c-.2477-.0198-.4614-.03-.635-.03-.1834 0-.386.01-.6015.03-.165.0162-.351.0388-.564.068v3.8164l-.1779.0363c-.1714.0346-.369.0526-.587.0526-.9701 0-1.7149-.3094-2.214-.919-.4883-.5962-.7356-1.4996-.7356-2.685 0-1.1945.2523-2.1138.75-2.7319.5112-.6315 1.24-.9514 2.1671-.9514.1877 0 .367.008.533.0247.1592.0155.3222.0399.499.0744.1671.0339.3432.079.5241.134.127.0385.2625.0818.405.1299.1143-.2442.2262-.5289.3334-.8495A4.6072 4.6072 0 0025.453.6226c-.4801-.193-.9257-.3231-1.3264-.387-.4512-.0723-.9303-.109-1.4242-.109m-9.1039 11.3749c.3306-1.6107 1.064-2.8275 1.8507-4.0322.2794-.428.5958-.912.8484-1.4429.024-.0508.049-.1009.0737-.151l.004-.007c.0998-.201.2127-.4282.2945-.7041.1171-.3944.1718-.7973.1623-1.1973-.018-.7663-.2202-1.4443-.6174-2.0723-.3503-.5542-.8064-.9997-1.3557-1.3246-.804-.4752-1.7995-.6664-2.7305-.5239-.7084.108-1.3466.3831-1.8965.8184l-.1179.0931L9.9963.865C9.8397.7422 9.7049.6487 9.5723.57 8.7683.0948 7.773-.0964 6.8418.0461c-1.1822.18-2.1851.8393-2.8247 1.856-.3902.6205-.5955 1.3201-.6103 2.0796-.019.9606.3157 1.662.569 2.1058.0444.0776.0871.1562.1298.2346l.0074.013c.0815.15.1655.3041.2621.4611.145.2346.289.4583.4622.7268.2691.4162.5217.8078.7517 1.2199.5257.9426.865 1.8203 1.0665 2.759.328.053.5923.078.8244.078.223 0 .5024-.0264.8319-.078.2857-1.3956.8685-2.5026 1.6527-3.726l.1606-.2501.1605.2497c.1954.3048.4021.6305.5902.9674.5256.9426.865 1.8206 1.0664 2.759.3285.053.5927.078.8245.078.223 0 .5023-.0264.8318-.078M9.1292 6.0402a25.3434 25.3434 0 01-.3405.532c-.3813.5842-.7828 1.221-1.136 1.9198l-.1707.338-.1696-.3383c-.0903-.18-.1877-.364-.2904-.5479-.2564-.46-.5362-.8925-.8064-1.3113-.1475-.2286-.2988-.4624-.4435-.697-.074-.1203-.1474-.2551-.2183-.3856a15.4184 15.4184 0 00-.1531-.2756c-.2562-.4494-.362-.8262-.3532-1.2604.0088-.4636.1263-.8686.3585-1.238.2211-.3516.7337-.963 1.683-1.1076a2.4908 2.4908 0 01.3765-.0286c.6011 0 1.0548.2148 1.2714.3425.0843.0501.1668.1065.2519.1732l.1178.0924-.0614.1362c-.2222.4928-.3408 1.0305-.3517 1.5977-.0127.6498.1323 1.262.4434 1.8715l.0487.0956zm3.1796 1.9036c-.2562-.4593-.536-.8922-.8061-1.3109l-.0095-.0145c-.1436-.2223-.2921-.4523-.4343-.683-.0734-.1192-.144-.2487-.2184-.3856l-.0039-.007c-.049-.0896-.098-.1792-.1492-.2684-.2561-.4495-.362-.8262-.3535-1.2605.0092-.4636.1263-.8686.3588-1.238.2212-.3516.7338-.963 1.683-1.1076a2.4908 2.4908 0 01.3765-.0286c.6011 0 1.0548.2148 1.2714.3429.3284.194.5916.4522.8043.7888.2406.3803.3525.761.3638 1.2344.0067.285-.0477.5334-.095.6914-.0412.1397-.1104.2787-.19.44-.0311.062-.0615.1234-.0911.1851-.2046.43-.4763.8463-.7394 1.2489-.382.5849-.7832 1.2216-1.1367 1.9208l-.1707.338-.1697-.3383a14.6635 14.6635 0 00-.2903-.5479" fill="#3d7b7d"/><path d="M29.4403.2313a1.6845 1.6845 0 01.2734-.0226c.0903 0 .1827.007.2783.0226v2.698a1.7889 1.7889 0 01-.2737.0223c-.0928 0-.1856-.007-.278-.0222M30.517.9895a.8569.8569 0 01.1055-.017 1.021 1.021 0 01.116-.006.9439.9439 0 01.2142.023l.0204.0547.017.0744.013.0769.0095.0642a.895.895 0 01.0896-.1126.6373.6373 0 01.1224-.1012.6468.6468 0 01.1556-.0734.6147.6147 0 01.1912-.0282c.2201 0 .3863.0603.4974.1802.1115.12.1669.3087.1669.5666v1.2382a1.5962 1.5962 0 01-.2664.0222c-.0874 0-.1763-.007-.2663-.0222V1.8336c0-.135-.0208-.2392-.062-.3115-.0414-.0723-.1133-.109-.2156-.109a.4817.4817 0 00-.1316.0187.2831.2831 0 00-.1217.0734c-.0364.0363-.0657.0871-.0886.152-.0226.065-.0335.1503-.0335.2551v1.017a1.6034 1.6034 0 01-.533 0m2.2553-1.5348h-.2438l-.0187-.0748.7017-.8968h.086v.5666h.4541a.8333.8333 0 01.0152.1012 1.3422 1.3422 0 010 .195.9529.9529 0 01-.0152.1087h-.454v.7617c0 .078.0063.1404.0187.188.0127.0476.0307.085.0547.1125a.1822.1822 0 00.0878.0565c.0353.01.0766.0145.1242.0145a.6692.6692 0 00.1104-.009c.0363-.006.068-.0116.0956-.0169a.728.728 0 01.0377.1485.9693.9693 0 01.0113.137l-.0018.0691-.006.0547a1.5254 1.5254 0 01-.3563.0413c-.2275 0-.4018-.0533-.5217-.1594-.12-.1066-.18-.2794-.18-.52m1.8085-.1503c.0102.15.0628.259.1577.326.0952.068.2201.102.375.102.0854 0 .1721-.008.261-.0248a1.5094 1.5094 0 00.2533-.069.8266.8266 0 01.071.1798.8978.8978 0 01.0342.2254c-.1955.0744-.4156.1122-.6608.1122-.1799 0-.3344-.0247-.4628-.075-.1295-.0502-.2343-.1193-.3158-.2082-.0811-.0889-.141-.1944-.1799-.3168-.0391-.1228-.0582-.2565-.0582-.4018 0-.1425.0201-.2762.06-.4018.0402-.1249.0995-.2336.1781-.326a.8414.8414 0 01.2928-.2194c.1161-.054.2523-.0811.4071-.0811.1352 0 .2551.024.3606.0716a.795.795 0 01.2677.195c.0738.0826.1299.181.1673.2946.0377.114.0564.2357.0564.3659 0 .0476-.0018.0945-.0056.1407a1.2678 1.2678 0 01-.013.1108zm.7616-.3715c-.0049-.12-.0377-.217-.099-.2907-.0615-.0737-.1472-.1111-.2573-.1111-.1248 0-.22.0353-.2854.1055-.0649.0702-.1033.1686-.1164.2963m1.6813-.7616a1.0228 1.0228 0 01.1072-.017.945.945 0 01.1108-.006c.037 0 .074.002.1104.007s.072.0117.1073.0188l.0204.0547.017.075.013.0788.0095.0656a.9744.9744 0 01.2025-.2085c.08-.061.18-.0917.3006-.0917a.935.935 0 01.086.004.308.308 0 01.0713.0109.748.748 0 01.011.0864c.0027.0328.0038.0667.0038.1012 0 .0427-.0018.089-.0056.139a.993.993 0 01-.0204.1425.5198.5198 0 00-.092-.007h-.0622a.9515.9515 0 00-.1422.0131c-.0529.009-.1026.0317-.1502.0695-.0477.0374-.0872.0938-.1182.169-.031.0751-.047.18-.047.315v.9229a1.189 1.189 0 01-.135.0152c-.0452.002-.089.004-.1313.004-.0427 0-.0857-.001-.1298-.004a1.345 1.345 0 01-.1369-.0152M37.774.9895a.8569.8569 0 01.1055-.017c.0346-.004.0737-.006.116-.006a.9439.9439 0 01.2142.023l.0204.0547.017.0744.013.0769.0095.0642a.895.895 0 01.0896-.1126.6373.6373 0 01.1224-.1012.6434.6434 0 01.156-.0734.611.611 0 01.1908-.0282c.2202 0 .386.0603.4974.1802.1112.12.167.3087.167.5666v1.2382a1.5966 1.5966 0 01-.2664.0222 1.596 1.596 0 01-.2664-.0222V1.8336c0-.135-.0208-.2392-.062-.3115-.0414-.0723-.113-.109-.2156-.109a.4816.4816 0 00-.1316.0187.2831.2831 0 00-.1217.0734c-.0364.0363-.0656.0871-.0886.152-.0222.065-.0335.1503-.0335.2551v1.017a1.6034 1.6034 0 01-.533 0m3.171-1.2756c0-.06-.0105-.109-.0306-.1467a.2217.2217 0 00-.0822-.0878c-.035-.0215-.0783-.0356-.1295-.043a1.1178 1.1178 0 00-.1707-.0113c-.1351 0-.279.026-.4311.0787a.9603.9603 0 01-.079-.1838c-.018-.0575-.0268-.1263-.0268-.2064A1.9526 1.9526 0 0140.326.971a1.986 1.986 0 01.3072-.0265c.26 0 .4636.0628.6096.1877.1472.1252.2195.3253.2195.6004v1.1257c-.0871.028-.1937.054-.3186.0787-.1252.025-.2663.0374-.4244.0374-.127 0-.244-.0109-.3503-.0335-.1069-.0226-.1979-.06-.2744-.1125a.5386.5386 0 01-.1764-.2028c-.0413-.0825-.0617-.1838-.0617-.3038 0-.12.0258-.2208.0773-.3023a.6002.6002 0 01.1986-.1951.8968.8968 0 01.272-.1048c.1002-.0212.2-.032.3005-.032.0723 0 .1524.004.2403.0112zm0 .3863a2.0958 2.0958 0 00-.098-.013.8146.8146 0 00-.0938-.005c-.122 0-.2194.0215-.2904.0653-.0716.0441-.1072.1147-.1072.212 0 .0654.0138.115.0413.15a.2384.2384 0 00.0995.0769.4089.4089 0 00.1235.0303c.044.004.0822.005.115.005a.711.711 0 00.1122-.009 3.152 3.152 0 00.098-.017m1.0428-1.141h-.2438l-.0187-.0748.7017-.8968h.0861v.5666h.454a.8017.8017 0 01.0152.1012c.002.03.004.0614.004.0938 0 .035-.001.0688-.004.1012a.7822.7822 0 01-.0152.1087h-.454v.7617c0 .078.007.1404.019.188.0123.0476.0307.085.0543.1125a.1841.1841 0 00.0878.0565c.0353.01.0766.0145.1242.0145a.669.669 0 00.1104-.009 3.8502 3.8502 0 00.096-.0169.7495.7495 0 01.0374.1485 1.033 1.033 0 01.0113.137l-.002.0691-.006.0547a1.5232 1.5232 0 01-.3563.0413c-.2276 0-.4015-.0533-.5218-.1594-.12-.1066-.1799-.2794-.1799-.52m1.4905-.8784h-.2515a.8785.8785 0 01-.017-.103.9312.9312 0 01-.005-.103c0-.0678.007-.1338.0223-.199h.7733v1.9399a1.511 1.511 0 01-.5218 0zm-.0787-.7317a1.4266 1.4266 0 01-.0226-.2512c0-.0804.007-.1637.0226-.2515.0423-.007.0878-.013.1369-.017.0483-.004.0928-.006.1333-.006a1.7645 1.7645 0 01.2777.023c.007.0427.0123.0847.0148.126.002.0412.004.0828.004.1255 0 .0402-.001.0815-.004.1238-.002.0423-.008.085-.0148.1274A1.3406 1.3406 0 0143.81.678c-.049.002-.0942.004-.1368.004a2.236 2.236 0 01-.1352-.004 1.302 1.302 0 01-.1386-.0152m1.947 2.3114c-.1577 0-.2946-.0258-.411-.077-.1157-.0514-.2124-.1223-.2886-.2137a.9276.9276 0 01-.1725-.3207c-.0392-.1227-.0582-.2554-.0582-.3976 0-.1432.019-.2769.0582-.4018.0385-.1252.0963-.2332.1725-.3242.0762-.0917.173-.1637.2886-.2162.1164-.0522.2533-.079.411-.079.158 0 .2953.0268.4131.079.1171.0526.2148.1245.2928.2162.0773.091.1348.199.1722.3242.0374.125.0564.2586.0564.4018 0 .1422-.019.2749-.0564.3976a.8938.8938 0 01-.1722.3207c-.078.0914-.1757.1623-.2928.2138-.1178.0512-.255.0769-.413.0769m0-.405c.14 0 .2409-.0522.3022-.1556.0614-.104.0921-.2533.0921-.4484 0-.1954-.0307-.345-.092-.4487-.0615-.1037-.1623-.1556-.3024-.1556-.1376 0-.2367.052-.298.1556-.0615.1037-.0918.2533-.0918.4487 0 .1951.0303.3443.0917.4484.0614.1034.1605.1556.2981.1556M46.7007.9895a.8575.8575 0 01.1055-.017c.0346-.004.0737-.006.116-.006a.9441.9441 0 01.2142.023l.0205.0547.0169.0744.013.0769.01.0642a.894.894 0 01.0897-.1126.638.638 0 01.1224-.1012.647.647 0 01.1556-.0734.6147.6147 0 01.1912-.0282c.2201 0 .386.0603.4974.1802.1111.12.1669.3087.1669.5666v1.2382a1.5965 1.5965 0 01-.2664.0222 1.595 1.595 0 01-.2663-.0222V1.8336c0-.135-.0208-.2392-.0621-.3115s-.1133-.109-.2156-.109a.4815.4815 0 00-.1316.0187.2832.2832 0 00-.1217.0734c-.0363.0363-.0656.0871-.0885.152-.0226.065-.0335.1503-.0335.2551v1.017a1.6033 1.6033 0 01-.533 0m3.1705-1.2756c0-.06-.0102-.109-.0303-.1467a.2162.2162 0 00-.0822-.0878c-.035-.0215-.0783-.0356-.1291-.043a1.1254 1.1254 0 00-.1711-.0113c-.1351 0-.279.026-.4315.0787a.9772.9772 0 01-.0787-.1838c-.018-.0575-.0268-.1263-.0268-.2064a1.957 1.957 0 01.3306-.0825 1.99 1.99 0 01.3076-.0265c.2604 0 .4636.0628.6096.1877.1468.1252.2194.3253.2194.6004v1.1257c-.0875.028-.1936.054-.3189.0787-.1249.025-.266.0374-.424.0374-.1274 0-.2441-.0109-.3503-.0335-.107-.0226-.198-.06-.2745-.1125a.536.536 0 01-.1764-.2028c-.0413-.0825-.0617-.1838-.0617-.3038 0-.12.0258-.2208.077-.3023a.6012.6012 0 01.1989-.1951.8932.8932 0 01.272-.1048c.1002-.0212.2-.032.3005-.032.0723 0 .1524.004.24.0112zm0 .3863a2.0244 2.0244 0 00-.0977-.013.819.819 0 00-.0938-.005c-.122 0-.2194.0215-.2907.0653-.0709.0441-.1069.1147-.1069.212 0 .0654.0138.115.0413.15a.2384.2384 0 00.0995.0769.4039.4039 0 00.1235.0303c.044.004.0822.005.1146.005a.7119.7119 0 00.1126-.009 3.0562 3.0562 0 00.0977-.017m.9757-2.349c.09-.0152.1785-.0229.266-.0229.0854 0 .1729.008.2632.023V2.156c0 .078.004.14.0127.1877.009.048.0229.0843.0416.111l.073.054c.03.0103.0677.0153.1125.0153l.0656-.004.0695-.0113a1.159 1.159 0 01.0413.3005v.0543l-.007.054c-.0402.013-.0882.0215-.1446.0268a1.7642 1.7642 0 01-.156.007c-.1922 0-.3467-.0533-.4628-.1594-.1164-.1065-.1746-.2794-.1746-.52M29.2375 4.4527c.0903-.0152.193-.0226.308-.0226.0448 0 .0906.001.1368.004a.8166.8166 0 01.137.0187l.3866 2.0302.465-2.0302a2.6144 2.6144 0 01.139-.017c.0423-.004.0864-.006.1312-.006.075 0 .1562.007.244.0227l.4837 2.0828.3867-2.0828a1.2446 1.2446 0 01.2402-.0226c.0501 0 .0988.002.1464.007.0477.005.0939.0102.1387.0152l-.6491 2.698a1.728 1.728 0 01-.2812.0222 2.327 2.327 0 01-.3115-.0222l-.4315-1.7974-.4653 1.7974c-.06.005-.1132.01-.1594.0148a1.5123 1.5123 0 01-.4036-.0152m3.7151.0458c-.1577 0-.2946-.0258-.411-.0769-.1157-.0515-.2124-.1224-.2886-.2138a.9275.9275 0 01-.1725-.3206c-.0391-.1228-.0582-.2554-.0582-.3976 0-.1429.019-.277.0582-.4018.0385-.1253.0963-.2332.1725-.3242.0762-.0917.173-.1637.2886-.2163.1164-.0522.2533-.079.411-.079.158 0 .2953.0268.4131.079.1175.0526.2148.1245.2928.2163.0773.091.1348.199.1722.3242.0377.1249.0564.259.0564.4018 0 .1422-.0187.2748-.0564.3976-.0374.1227-.095.2293-.1722.3206-.078.0914-.1753.1623-.2928.2138-.1178.0512-.255.077-.4131.077m0-.405c.14 0 .241-.0523.3023-.1556.0614-.1041.0921-.2533.0921-.4484s-.0307-.345-.092-.4484c-.0614-.104-.1623-.156-.3024-.156-.1376 0-.2367.052-.298.156-.0615.1034-.0918.2533-.0918.4484 0 .195.0303.3443.0917.4484.0614.1033.1605.1555.2981.1555m1.3543-1.5797a1.0228 1.0228 0 01.1072-.0169.945.945 0 01.1108-.006c.037 0 .0741.002.1104.007.036.005.072.0116.1073.0187l.0204.0547.017.0751.013.0787.0095.0656a.9744.9744 0 01.2025-.2085c.0801-.061.18-.0917.3006-.0917a.937.937 0 01.086.004.3006.3006 0 01.0713.011.748.748 0 01.011.0863c.0028.0328.0039.0667.0039.1013 0 .0427-.0018.0889-.0056.139a.993.993 0 01-.0205.1425.5198.5198 0 00-.092-.007h-.0622a.9515.9515 0 00-.1421.013c-.053.009-.1027.0318-.1503.0696-.0476.0374-.0872.0938-.1182.169-.0314.075-.047.1799-.047.315v.9228a1.189 1.189 0 01-.135.0152c-.0452.002-.089.004-.1313.004-.0427 0-.0857-.001-.1298-.004a1.345 1.345 0 01-.1369-.0152m1.475-2.7461a1.4887 1.4887 0 01.2625-.023c.0903 0 .1792.008.2667.023v2.7428a1.555 1.555 0 01-.2667.0222c-.0896 0-.1778-.007-.2625-.0222zm.6043 1.7258l.4798-.923a1.925 1.925 0 01.2963-.0225c.0953 0 .188.007.2784.0226l-.4957.8967.5779 1.0432a2.021 2.021 0 01-.2964.0222 1.807 1.807 0 01-.278-.0222m.8633-1.9434a.6847.6847 0 01.103-.0152c.034-.003.072-.004.1147-.004.0698 0 .141.007.2138.0222l.0205.0547.019.0765.0153.081.009.0654a.7801.7801 0 01.0822-.1182.5252.5252 0 01.1181-.103.6643.6643 0 01.156-.0734.6163.6163 0 01.1912-.0282c.108 0 .2085.0201.3023.0603a.6645.6645 0 01.2455.182c.0702.0811.1246.1831.1637.3055.0385.1228.0582.2678.0582.4354 0 .1626-.024.3083-.0716.437-.0476.1288-.1164.2382-.2064.3285-.09.0903-.2003.1594-.3305.2085-.1298.0487-.2773.0727-.4424.0727-.0423 0-.0843-.002-.126-.005a1.1255 1.1255 0 01-.103-.0134v.8636a1.403 1.403 0 01-.1368.0145 1.8968 1.8968 0 01-.1298.004 1.889 1.889 0 01-.1292-.004 1.2456 1.2456 0 01-.1368-.0145zm.5327 1.5307c.0677.02.1453.03.2328.03.1553 0 .2738-.0501.3563-.15.0822-.1001.1242-.2515.1242-.454 0-.0776-.007-.1495-.019-.2159-.0127-.066-.0339-.1227-.0639-.1704a.3396.3396 0 00-.1143-.1129c-.0466-.0275-.1033-.0413-.1707-.0413-.0628 0-.1157.012-.1595.036a.2933.2933 0 00-.1072.0974.4324.4324 0 00-.06.1443.8077.8077 0 00-.0187.1764m1.6813-1.6697c.09-.0152.1785-.023.266-.023.0854 0 .1728.008.2632.023v1.9695c0 .078.004.14.0127.1877.009.0476.0229.0843.0416.1111l.073.054c.03.01.0677.0152.1125.0152l.0656-.004.0695-.0113a1.159 1.159 0 01.0413.3006v.0543l-.007.054c-.0402.013-.0882.0215-.1446.0268a1.7625 1.7625 0 01-.156.007c-.1922 0-.3464-.053-.4628-.1591-.1164-.1066-.1746-.2794-.1746-.52m2.1981-.6187c0-.06-.0102-.109-.0303-.1463a.2187.2187 0 00-.0822-.0882c-.035-.0215-.0783-.0356-.1291-.043a1.1254 1.1254 0 00-.1711-.0113c-.1351 0-.279.026-.4315.0787a.9772.9772 0 01-.0787-.1838c-.018-.0575-.0268-.1263-.0268-.2064a1.957 1.957 0 01.3306-.0825 1.99 1.99 0 01.3076-.0265c.2604 0 .4636.0628.6096.1877.1468.1252.2194.3253.2194.6004v1.1257c-.0875.028-.1936.054-.3185.0787-.1253.025-.2664.0374-.4244.0374-.1274 0-.2441-.0109-.3503-.0335-.107-.0226-.198-.06-.2745-.1125a.535.535 0 01-.1764-.2028c-.0413-.0825-.0617-.1838-.0617-.3038 0-.12.0258-.2208.077-.3023a.6012.6012 0 01.1989-.1951.8932.8932 0 01.272-.1048c.1002-.0212.2-.032.3005-.032.0723 0 .1524.004.24.0112zm0 .3864a2.0613 2.0613 0 00-.0974-.013.8257.8257 0 00-.0942-.005c-.122 0-.2194.0215-.2907.0653-.0709.044-.1069.1146-.1069.212 0 .0653.0138.115.0413.15a.2384.2384 0 00.0995.0768.401.401 0 00.1235.0303c.044.004.0822.005.1146.005a.7196.7196 0 00.113-.009 3.2304 3.2304 0 00.0973-.0169m2.2924-.0637c.0303.0497.055.108.0751.1746.0201.066.0296.1443.0296.2343-.0998.0399-.1937.0656-.2812.0766a2.0815 2.0815 0 01-.2737.0169c-.1626 0-.3041-.0254-.4244-.077-.12-.051-.2194-.1217-.2981-.2116-.0787-.09-.1383-.1972-.1782-.321-.0399-.1235-.06-.2583-.06-.4036 0-.1425.019-.2748.0582-.3976a.9144.9144 0 01.1764-.3224.8198.8198 0 01.2946-.218c.1175-.0523.2536-.0788.4089-.0788.055 0 .1058.001.152.004.0462.002.0907.007.133.0145.0423.008.085.018.1277.0303a2.106 2.106 0 01.1425.0483.9028.9028 0 01-.0226.1934.8558.8558 0 01-.0713.205c-.0748-.0255-.1407-.0424-.1972-.0509a1.2265 1.2265 0 00-.1926-.013c-.1556 0-.2723.0503-.351.1516-.0787.1013-.1182.246-.1182.4332 0 .2032.0423.3507.1274.4431.085.0924.2.1387.3453.1387.0374 0 .072-.0004.103-.002l.0922-.009.0917-.023c.0314-.01.068-.0221.1107-.037m.8482-.3488c.0102.1499.0628.2589.1577.326.0952.068.2201.1019.375.1019.0854 0 .1721-.008.261-.0247a1.5093 1.5093 0 00.2533-.0691.8276.8276 0 01.071.1799.8974.8974 0 01.0341.2254c-.1954.0744-.4155.1122-.6607.1122-.18 0-.3345-.0247-.4632-.0751-.1291-.0501-.234-.1193-.3154-.2082-.0811-.0889-.1411-.1943-.18-.3167-.0391-.1228-.0581-.2565-.0581-.4019 0-.1425.02-.2762.06-.4018.0402-.1249.0995-.2335.1781-.326a.8418.8418 0 01.2928-.2194c.1161-.054.2523-.081.4071-.081.1351 0 .2551.024.3606.0715a.795.795 0 01.2677.1951c.0737.0825.1299.181.1672.2946.0378.114.0565.2356.0565.3658 0 .0476-.002.0945-.006.1408a1.2456 1.2456 0 01-.013.1108zm.7616-.3715c-.005-.12-.0378-.217-.099-.2907-.0618-.0741-.1472-.1112-.2572-.1112-.125 0-.2202.0353-.2854.1055-.065.07-.1034.1687-.1165.2964M30.9224 9.9722a1.7119 1.7119 0 01.2702-.0226 1.81 1.81 0 01.2741.0226v1.3247a1.7675 1.7675 0 01-.4074.0956c-.1411.0166-.2642.0243-.3697.0243-.2198 0-.4124-.0342-.5775-.103-.1655-.0688-.3027-.1647-.4128-.2889-.1104-.1238-.1926-.271-.2476-.4406-.055-.1704-.0826-.3556-.0826-.5557 0-.2003.029-.3859.0861-.557.0579-.1714.1408-.3196.2498-.4448.109-.125.2427-.2226.4018-.2928.1584-.07.3394-.1048.5419-.1048.1199 0 .232.007.3354.0226.1041.0148.212.0462.325.0938a.8418.8418 0 01-.0448.2194 5.159 5.159 0 01-.0826.2156c-.0878-.03-.1654-.0512-.2328-.0635-.0678-.0131-.1478-.0187-.2403-.0187-.2402 0-.4247.0776-.5535.2342-.1287.1563-.1933.3884-.1933.696 0 .3077.0638.5373.1916.6883.1273.1517.315.2272.563.2272a.7924.7924 0 00.1143-.007c.0335-.005.0642-.01.0917-.0148m1.0241-1.4902a1.0083 1.0083 0 01.1072-.0169.945.945 0 01.1108-.006c.037 0 .0741.002.1104.007.0364.005.072.0116.1073.0187l.0204.0547.017.0751.013.0787.0095.0656a.9744.9744 0 01.2025-.2085c.0801-.061.18-.0917.3002-.0917a.942.942 0 01.0865.004c.0324.002.056.006.0712.011a.748.748 0 01.011.0863c.0028.0328.0039.0667.0039.1013 0 .0427-.0018.0889-.0056.139a.993.993 0 01-.0205.1425.5197.5197 0 00-.092-.007h-.0622a.9515.9515 0 00-.1421.013c-.053.009-.1027.0318-.1503.0696-.0476.0374-.0871.0938-.1182.169-.0314.075-.047.1799-.047.315v.9229a1.2262 1.2262 0 01-.135.0152c-.0452.002-.089.004-.1313.004-.0426 0-.0857-.001-.1298-.004a1.345 1.345 0 01-.1369-.0152m2.274.0415c-.1577 0-.2946-.0258-.411-.077-.1157-.0514-.2124-.1223-.2886-.214-.0762-.091-.134-.1976-.1725-.3204-.0391-.1228-.0582-.2554-.0582-.3976 0-.1432.019-.2769.0582-.4018.0385-.1252.0963-.2332.1725-.3242.0762-.0917.1729-.1637.2886-.2162.1164-.0522.2533-.079.411-.079.158 0 .2956.0268.4131.079.1171.0526.2148.1245.2928.2162.0773.091.1348.199.1722.3242a1.397 1.397 0 01.0564.4018c0 .1422-.019.2748-.0564.3976-.0374.1228-.095.2293-.1722.3203-.078.0917-.1757.1627-.2928.2142-.1175.0512-.255.0769-.4131.0769m0-.405c.14 0 .241-.0522.3023-.1556.0614-.104.0921-.2533.0921-.4484 0-.1954-.0307-.345-.092-.4487-.0615-.1037-.1624-.1556-.3024-.1556-.1376 0-.2367.052-.2981.1556-.0614.1037-.0917.2533-.0917.4487 0 .1951.0303.3443.0917.4484.0614.1034.1605.1556.298.1556m1.3209-1.5798a1.59 1.59 0 01.266-.0226c.0875 0 .1764.007.2667.0226v1.028c0 .1027.008.1873.0243.2533.0166.0663.0413.1189.0752.1574a.2736.2736 0 00.1256.0829c.05.0162.109.0243.1767.0243.0924 0 .1697-.008.2321-.0265V9.432a1.5558 1.5558 0 01.5292 0v1.8648c-.0797.0275-.1856.0543-.3172.0804a2.0433 2.0433 0 01-.4106.0395c-.1273 0-.2505-.01-.368-.0296-.117-.0205-.2208-.0628-.3093-.128-.0886-.065-.1598-.1598-.212-.2847-.0526-.1253-.0787-.2918-.0787-.4992m2.1689-1.0466a.6845.6845 0 01.103-.0152c.0339-.003.072-.004.1147-.004.0698 0 .141.007.2137.0222l.0208.0547.0187.0766.0152.0811.0092.0653a.7852.7852 0 01.0822-.1182.516.516 0 01.1182-.103.6648.6648 0 01.156-.0734.6163.6163 0 01.1911-.0282c.108 0 .2085.0201.3024.0603a.6645.6645 0 01.2455.182c.0702.0808.1245.1831.1637.3056.0385.1227.0582.2677.0582.4353 0 .1626-.024.3083-.0716.437-.0476.1288-.1164.2382-.2064.3285-.09.0903-.2004.1595-.3302.2085-.1302.0487-.2776.0727-.4427.0727-.0427 0-.0844-.002-.126-.005a1.1275 1.1275 0 01-.103-.0134v.8636a1.4467 1.4467 0 01-.1369.0145 1.8966 1.8966 0 01-.1298.004 1.888 1.888 0 01-.1291-.004 1.2392 1.2392 0 01-.1369-.0145zm.5327 1.5307c.0677.0201.1453.03.2328.03.1552 0 .2738-.05.3563-.15.0825-.1001.1242-.2515.1242-.454 0-.0776-.007-.1495-.019-.2162-.0127-.0656-.0339-.1224-.0639-.1704a.339.339 0 00-.1143-.1125c-.0466-.0275-.1034-.0413-.1708-.0413-.0628 0-.1157.012-.1594.0356a.3003.3003 0 00-.1072.0977.4255.4255 0 00-.06.1442.8046.8046 0 00-.0187.1764" fill="#00a3c8"/></svg>